<mxfile host="app.diagrams.net" modified="2024-06-18T01:14:33.835Z" agent="Mozilla/5.0 (X11; Linux x86_64; rv:127.0) Gecko/20100101 Firefox/127.0" version="24.5.5" etag="nQLHXKKffGHBq20FFkn0" type="github">
  <diagram name="Page-1" id="2Mn4pPXClUiaiotB8hKc">
    <mxGraphModel>
      <root>
        <mxCell id="0" />
        <mxCell id="1" parent="0" />
      </root>
    </mxGraphModel>
  </diagram>
</mxfile>
